<svg width="79" height="68" viewBox="0 0 79 68" fill="none" xmlns="http://www.w3.org/2000/svg">
<path d="M78.8721 16.6975L68.4484 0.498215C68.2507 0.192039 67.8576 0 67.4273 0H11.5756C11.1441 0 10.7521 0.192945 10.5544 0.498215L0.128494 16.6975C-0.0511081 16.9765 -0.0420723 17.3098 0.153344 17.5816L19.0579 43.8918C18.0672 45.8974 17.5047 48.0759 17.5047 50.3605C17.5047 60.0874 27.3715 68 39.5008 68C51.6279 68 61.4947 60.0874 61.4947 50.3605C61.4947 48.0759 60.9322 45.8974 59.9416 43.8918L78.8461 17.5816C79.0426 17.3098 79.0505 16.9765 78.8721 16.6975ZM65.4358 1.84249L55.7441 15.3305H23.2565L13.5659 1.84249H65.4358ZM54.4202 17.1748L43.0669 32.9755C41.9034 32.8224 40.7185 32.7219 39.502 32.7219C38.2843 32.7219 37.0983 32.8224 35.9348 32.9755L24.5803 17.1748H54.4202ZM2.4588 17.0951L11.6298 2.84617L33.5751 33.3913C27.8538 34.6776 23.0667 37.7638 20.2462 41.851L2.4588 17.0951ZM39.5008 66.1566C28.64 66.1566 19.8034 59.0702 19.8034 50.3605C19.8034 41.6526 28.64 34.5662 39.5008 34.5662C50.3594 34.5662 59.1961 41.6526 59.1961 50.3605C59.1961 59.0702 50.3606 66.1566 39.5008 66.1566ZM58.7533 41.8501C55.9327 37.7629 51.1445 34.6767 45.4243 33.3904L67.3719 2.84526L76.5418 17.0951L58.7533 41.8501Z" fill="#1595DC"/>
<path d="M35.179 57V54.7841L40.3565 49.9901C40.7969 49.5639 41.1662 49.1804 41.4645 48.8395C41.7675 48.4986 41.9972 48.1648 42.1534 47.8381C42.3097 47.5066 42.3878 47.1491 42.3878 46.7656C42.3878 46.3395 42.2907 45.9725 42.0966 45.6648C41.9025 45.3523 41.6373 45.1132 41.3011 44.9474C40.965 44.777 40.5838 44.6918 40.1577 44.6918C39.7126 44.6918 39.3243 44.7817 38.9929 44.9616C38.6615 45.1416 38.4058 45.3996 38.2259 45.7358C38.0459 46.072 37.956 46.4721 37.956 46.9361H35.0369C35.0369 45.9844 35.2524 45.1581 35.6832 44.4574C36.1141 43.7566 36.7178 43.2145 37.4943 42.831C38.2708 42.4474 39.1657 42.2557 40.179 42.2557C41.2206 42.2557 42.1274 42.4403 42.8991 42.8097C43.6757 43.1742 44.2794 43.6809 44.7102 44.3295C45.1411 44.9782 45.3565 45.7216 45.3565 46.5597C45.3565 47.1089 45.2476 47.651 45.0298 48.1861C44.8168 48.7211 44.4356 49.3153 43.8864 49.9688C43.3371 50.6174 42.563 51.3963 41.5639 52.3054L39.4403 54.3864V54.4858H45.5483V57H35.179Z" fill="#E8DF06"/>
</svg>
