<svg width="79" height="68" viewBox="0 0 79 68" fill="none" xmlns="http://www.w3.org/2000/svg">
<path d="M78.8721 16.6975L68.4484 0.498215C68.2507 0.192039 67.8576 0 67.4273 0H11.5756C11.1441 0 10.7521 0.192945 10.5544 0.498215L0.128494 16.6975C-0.0511081 16.9765 -0.0420723 17.3098 0.153344 17.5816L19.0579 43.8918C18.0672 45.8974 17.5047 48.0759 17.5047 50.3605C17.5047 60.0874 27.3715 68 39.5008 68C51.6279 68 61.4947 60.0874 61.4947 50.3605C61.4947 48.0759 60.9322 45.8974 59.9416 43.8918L78.8461 17.5816C79.0426 17.3098 79.0505 16.9765 78.8721 16.6975ZM65.4358 1.84249L55.7441 15.3305H23.2565L13.5659 1.84249H65.4358ZM54.4202 17.1748L43.0669 32.9755C41.9034 32.8224 40.7185 32.7219 39.502 32.7219C38.2843 32.7219 37.0983 32.8224 35.9348 32.9755L24.5803 17.1748H54.4202ZM2.4588 17.0951L11.6298 2.84617L33.5751 33.3913C27.8538 34.6776 23.0667 37.7638 20.2462 41.851L2.4588 17.0951ZM39.5008 66.1566C28.64 66.1566 19.8034 59.0702 19.8034 50.3605C19.8034 41.6526 28.64 34.5662 39.5008 34.5662C50.3594 34.5662 59.1961 41.6526 59.1961 50.3605C59.1961 59.0702 50.3606 66.1566 39.5008 66.1566ZM58.7533 41.8501C55.9327 37.7629 51.1445 34.6767 45.4243 33.3904L67.3719 2.84526L76.5418 17.0951L58.7533 41.8501Z" fill="#1595DC"/>
<path d="M41.5071 42.4545V57H38.4318V45.3736H38.3466L35.0156 47.4616V44.7344L38.6165 42.4545H41.5071Z" fill="#E8DF06"/>
</svg>
