<svg width="79" height="68" viewBox="0 0 79 68" fill="none" xmlns="http://www.w3.org/2000/svg">
<path d="M78.8721 16.6975L68.4484 0.498215C68.2507 0.192039 67.8576 0 67.4273 0H11.5756C11.1441 0 10.7521 0.192945 10.5544 0.498215L0.128494 16.6975C-0.0511081 16.9765 -0.0420723 17.3098 0.153344 17.5816L19.0579 43.8918C18.0672 45.8974 17.5047 48.0759 17.5047 50.3605C17.5047 60.0874 27.3715 68 39.5008 68C51.6279 68 61.4947 60.0874 61.4947 50.3605C61.4947 48.0759 60.9322 45.8974 59.9416 43.8918L78.8461 17.5816C79.0426 17.3098 79.0505 16.9765 78.8721 16.6975ZM65.4358 1.84249L55.7441 15.3305H23.2565L13.5659 1.84249H65.4358ZM54.4202 17.1748L43.0669 32.9755C41.9034 32.8224 40.7185 32.7219 39.502 32.7219C38.2843 32.7219 37.0983 32.8224 35.9348 32.9755L24.5803 17.1748H54.4202ZM2.4588 17.0951L11.6298 2.84617L33.5751 33.3913C27.8538 34.6776 23.0667 37.7638 20.2462 41.851L2.4588 17.0951ZM39.5008 66.1566C28.64 66.1566 19.8034 59.0702 19.8034 50.3605C19.8034 41.6526 28.64 34.5662 39.5008 34.5662C50.3594 34.5662 59.1961 41.6526 59.1961 50.3605C59.1961 59.0702 50.3606 66.1566 39.5008 66.1566ZM58.7533 41.8501C55.9327 37.7629 51.1445 34.6767 45.4243 33.3904L67.3719 2.84526L76.5418 17.0951L58.7533 41.8501Z" fill="#1595DC"/>
<path d="M40.4915 57.1989C39.4877 57.1989 38.5928 57.0142 37.8068 56.6449C37.0256 56.2756 36.4053 55.7666 35.946 55.1179C35.4867 54.4692 35.2476 53.7259 35.2287 52.8878H38.2116C38.2448 53.4512 38.4815 53.9081 38.9219 54.2585C39.3622 54.6089 39.8854 54.7841 40.4915 54.7841C40.9744 54.7841 41.4006 54.6776 41.7699 54.4645C42.1439 54.2467 42.4351 53.946 42.6435 53.5625C42.8565 53.1742 42.9631 52.7292 42.9631 52.2273C42.9631 51.7159 42.8542 51.2661 42.6364 50.8778C42.4233 50.4896 42.1274 50.1866 41.7486 49.9688C41.3698 49.7509 40.9366 49.6397 40.4489 49.6349C40.0227 49.6349 39.6084 49.7225 39.206 49.8977C38.8082 50.0729 38.4981 50.312 38.2756 50.6151L35.5412 50.125L36.2301 42.4545H45.1222V44.9688H38.7656L38.3892 48.6122H38.4744C38.7301 48.2524 39.116 47.9541 39.6321 47.7173C40.1482 47.4806 40.7259 47.3622 41.3651 47.3622C42.241 47.3622 43.0223 47.5682 43.7088 47.9801C44.3954 48.392 44.9375 48.9579 45.3352 49.6776C45.733 50.3925 45.9295 51.2164 45.9247 52.1491C45.9295 53.1293 45.7022 54.0005 45.2429 54.7628C44.7884 55.5204 44.1515 56.117 43.3324 56.5526C42.518 56.9834 41.571 57.1989 40.4915 57.1989Z" fill="#E8DF06"/>
</svg>
