<svg width="79" height="68" viewBox="0 0 79 68" fill="none" xmlns="http://www.w3.org/2000/svg">
<path d="M78.8721 16.6975L68.4484 0.498215C68.2507 0.192039 67.8576 0 67.4273 0H11.5756C11.1441 0 10.7521 0.192945 10.5544 0.498215L0.128494 16.6975C-0.0511081 16.9765 -0.0420723 17.3098 0.153344 17.5816L19.0579 43.8918C18.0672 45.8974 17.5047 48.0759 17.5047 50.3605C17.5047 60.0874 27.3715 68 39.5008 68C51.6279 68 61.4947 60.0874 61.4947 50.3605C61.4947 48.0759 60.9322 45.8974 59.9416 43.8918L78.8461 17.5816C79.0426 17.3098 79.0505 16.9765 78.8721 16.6975ZM65.4358 1.84249L55.7441 15.3305H23.2565L13.5659 1.84249H65.4358ZM54.4202 17.1748L43.0669 32.9755C41.9034 32.8224 40.7185 32.7219 39.502 32.7219C38.2843 32.7219 37.0983 32.8224 35.9348 32.9755L24.5803 17.1748H54.4202ZM2.4588 17.0951L11.6298 2.84617L33.5751 33.3913C27.8538 34.6776 23.0667 37.7638 20.2462 41.851L2.4588 17.0951ZM39.5008 66.1566C28.64 66.1566 19.8034 59.0702 19.8034 50.3605C19.8034 41.6526 28.64 34.5662 39.5008 34.5662C50.3594 34.5662 59.1961 41.6526 59.1961 50.3605C59.1961 59.0702 50.3606 66.1566 39.5008 66.1566ZM58.7533 41.8501C55.9327 37.7629 51.1445 34.6767 45.4243 33.3904L67.3719 2.84526L76.5418 17.0951L58.7533 41.8501Z" fill="#1595DC"/>
<path d="M40.5554 57.1989C39.4948 57.1989 38.5502 57.0166 37.7216 56.652C36.8977 56.2827 36.2467 55.776 35.7685 55.1321C35.295 54.4834 35.0511 53.7353 35.0369 52.8878H38.1335C38.1525 53.2429 38.2685 53.5554 38.4815 53.8253C38.6993 54.0904 38.9882 54.2964 39.348 54.4432C39.7079 54.59 40.1127 54.6634 40.5625 54.6634C41.0312 54.6634 41.4455 54.5805 41.8054 54.4148C42.1652 54.2491 42.447 54.0194 42.6506 53.7259C42.8542 53.4323 42.956 53.0937 42.956 52.7102C42.956 52.322 42.8471 51.9787 42.6293 51.6804C42.4162 51.3774 42.1084 51.1406 41.706 50.9702C41.3082 50.7997 40.8348 50.7145 40.2855 50.7145H38.929V48.456H40.2855C40.7495 48.456 41.1591 48.3755 41.5142 48.2145C41.8741 48.0535 42.1534 47.831 42.3523 47.5469C42.5511 47.258 42.6506 46.9219 42.6506 46.5384C42.6506 46.1738 42.563 45.8542 42.3878 45.5795C42.2173 45.3002 41.9759 45.0824 41.6634 44.9261C41.3556 44.7699 40.9957 44.6918 40.5838 44.6918C40.1671 44.6918 39.786 44.7675 39.4403 44.919C39.0947 45.0658 38.8177 45.2765 38.6094 45.5511C38.401 45.8258 38.2898 46.1477 38.2756 46.517H35.3281C35.3423 45.679 35.5814 44.9403 36.0455 44.3011C36.5095 43.6619 37.1345 43.1624 37.9205 42.8026C38.7112 42.438 39.6037 42.2557 40.598 42.2557C41.6018 42.2557 42.4801 42.438 43.233 42.8026C43.9858 43.1671 44.5705 43.6596 44.9872 44.2798C45.4086 44.8954 45.617 45.5866 45.6122 46.3537C45.617 47.1681 45.3636 47.8475 44.8523 48.392C44.3456 48.9366 43.6851 49.2822 42.8707 49.429V49.5426C43.9408 49.6799 44.7552 50.0516 45.3139 50.6577C45.8774 51.259 46.1567 52.0118 46.152 52.9162C46.1567 53.7448 45.9176 54.4811 45.4347 55.125C44.9564 55.7689 44.2959 56.2756 43.4531 56.6449C42.6103 57.0142 41.6444 57.1989 40.5554 57.1989Z" fill="#E8DF06"/>
</svg>
