<svg width="46" height="46" viewBox="0 0 46 46" fill="none" xmlns="http://www.w3.org/2000/svg">
<path d="M18.8509 11.9364C20.2183 8.00258 25.7817 8.00258 27.1491 11.9364L27.404 12.6698C28.0073 14.4052 29.6268 15.5819 31.4636 15.6193L32.2399 15.6351C36.4038 15.72 38.123 21.0111 34.8042 23.5272L34.1855 23.9963C32.7214 25.1063 32.1028 27.0101 32.6349 28.7686L32.8597 29.5118C34.0657 33.4981 29.5648 36.7682 26.1463 34.3894L25.509 33.9459C24.0009 32.8965 21.9991 32.8965 20.491 33.9459L19.8537 34.3894C16.4352 36.7682 11.9343 33.4981 13.1403 29.5118L13.3651 28.7686C13.8972 27.0101 13.2786 25.1063 11.8145 23.9963L11.1958 23.5272C7.87701 21.0111 9.59619 15.72 13.7601 15.6351L14.5364 15.6193C16.3732 15.5819 17.9927 14.4052 18.596 12.6698L18.8509 11.9364Z" fill="#1595DC"/>
<circle cx="23" cy="23" r="4" fill="#282828"/>
<circle cx="23" cy="23" r="20.5" stroke="#6AC2F3"/>
</svg>
